<?xml version="1.0" encoding="UTF-8"?>
<svg width="808px" height="154px" viewBox="0 0 808 154" version="1.1" xmlns="http://www.w3.org/2000/svg" xmlns:xlink="http://www.w3.org/1999/xlink">
    <!-- Generator: Sketch 44.1 (41455) - http://www.bohemiancoding.com/sketch -->
    <title>stars</title>
    <desc>Created with Sketch.</desc>
    <defs></defs>
    <g id="Specs" stroke="none" stroke-width="1" fill="none" fill-rule="evenodd">
        <g id="abi-success-full" transform="translate(-316.000000, -133.000000)">
            <g id="stars" transform="translate(316.000000, 133.000000)">
                <polygon id="Fill-4" fill="#68C5CD" points="711.72541 96.9013003 706.953381 96.9013003 706.953381 92 703.772029 92 703.772029 96.9013003 699 96.9013003 699 100.168834 703.772029 100.168834 703.772029 105.070134 706.953381 105.070134 706.953381 100.168834 711.72541 100.168834"></polygon>
                <polygon id="Fill-4" fill="#F9C19E" points="109.906762 40.9013003 105.134734 40.9013003 105.134734 36 101.953381 36 101.953381 40.9013003 97.1813524 40.9013003 97.1813524 44.1688338 101.953381 44.1688338 101.953381 49.070134 105.134734 49.070134 105.134734 44.1688338 109.906762 44.1688338"></polygon>
                <polygon id="Fill-6" fill="#FFBCBA" transform="translate(609.362705, 147.267534) scale(-1, 1) translate(-609.362705, -147.267534) " points="615.72541 145.633767 610.953381 145.633767 610.953381 140.732466 607.772029 140.732466 607.772029 145.633767 603 145.633767 603 148.9013 607.772029 148.9013 607.772029 153.802601 610.953381 153.802601 610.953381 148.9013 615.72541 148.9013"></polygon>
                <polygon id="Fill-6" fill="#B5D99F" transform="translate(565.362705, 29.535067) scale(-1, 1) translate(-565.362705, -29.535067) " points="571.72541 27.9013003 566.953381 27.9013003 566.953381 23 563.772029 23 563.772029 27.9013003 559 27.9013003 559 31.1688338 563.772029 31.1688338 563.772029 36.070134 566.953381 36.070134 566.953381 31.1688338 571.72541 31.1688338"></polygon>
                <path d="M639.590676,80.7324665 C640.468729,80.7324665 641.181352,81.464394 641.181352,82.3662332 C641.181352,83.2680725 640.468729,84 639.590676,84 C638.712623,84 638,83.2680725 638,82.3662332 C638,81.464394 638.712623,80.7324665 639.590676,80.7324665" id="Fill-24" fill="#00A0DC"></path>
                <polygon id="Fill-5" fill="#9BDAF3" transform="translate(156.362705, 108.535067) scale(-1, 1) translate(-156.362705, -108.535067) " points="162.72541 106.9013 157.953381 106.9013 157.953381 102 154.772029 102 154.772029 106.9013 150 106.9013 150 110.168834 154.772029 110.168834 154.772029 115.070134 157.953381 115.070134 157.953381 110.168834 162.72541 110.168834"></polygon>
                <path d="M118.590676,131 C119.468729,131 120.181352,131.731928 120.181352,132.633767 C120.181352,133.535606 119.468729,134.267534 118.590676,134.267534 C117.712623,134.267534 117,133.535606 117,132.633767 C117,131.731928 117.712623,131 118.590676,131" id="Fill-14" fill="#00A0DC" transform="translate(118.590676, 132.633767) scale(-1, 1) translate(-118.590676, -132.633767) "></path>
                <path d="M218.590676,143.732466 C219.468729,143.732466 220.181352,144.464394 220.181352,145.366233 C220.181352,146.268072 219.468729,147 218.590676,147 C217.712623,147 217,146.268072 217,145.366233 C217,144.464394 217.712623,143.732466 218.590676,143.732466" id="Fill-16" fill="#9BDAF3" transform="translate(218.590676, 145.366233) scale(-1, 1) translate(-218.590676, -145.366233) "></path>
                <path d="M1.59067622,113 C2.46872949,113 3.18135243,113.731928 3.18135243,114.633767 C3.18135243,115.535606 2.46872949,116.267534 1.59067622,116.267534 C0.712622945,116.267534 0,115.535606 0,114.633767 C0,113.731928 0.712622945,113 1.59067622,113" id="Fill-18" fill="#9BDAF3" transform="translate(1.590676, 114.633767) scale(-1, 1) translate(-1.590676, -114.633767) "></path>
                <path d="M312.590676,50 C313.468729,50 314.181352,50.7319275 314.181352,51.6337668 C314.181352,52.535606 313.468729,53.2675335 312.590676,53.2675335 C311.712623,53.2675335 311,52.535606 311,51.6337668 C311,50.7319275 311.712623,50 312.590676,50" id="Fill-24" fill="#00A0DC" transform="translate(312.590676, 51.633767) scale(-1, 1) translate(-312.590676, -51.633767) "></path>
                <path d="M149.590676,81 C150.468729,81 151.181352,81.7319275 151.181352,82.6337668 C151.181352,83.535606 150.468729,84.2675335 149.590676,84.2675335 C148.712623,84.2675335 148,83.535606 148,82.6337668 C148,81.7319275 148.712623,81 149.590676,81" id="Fill-32" fill="#9BDAF3" transform="translate(149.590676, 82.633767) scale(-1, 1) translate(-149.590676, -82.633767) "></path>
                <path d="M572.590676,62.7324665 C573.468729,62.7324665 574.181352,63.464394 574.181352,64.3662332 C574.181352,65.2680725 573.468729,66 572.590676,66 C571.712623,66 571,65.2680725 571,64.3662332 C571,63.464394 571.712623,62.7324665 572.590676,62.7324665" id="Fill-14" fill="#00A0DC"></path>
                <path d="M538.590676,101.732466 C539.468729,101.732466 540.181352,102.464394 540.181352,103.366233 C540.181352,104.268072 539.468729,105 538.590676,105 C537.712623,105 537,104.268072 537,103.366233 C537,102.464394 537.712623,101.732466 538.590676,101.732466" id="Fill-16" fill="#9BDAF3"></path>
                <path d="M583.590676,127.732466 C584.468729,127.732466 585.181352,128.464394 585.181352,129.366233 C585.181352,130.268072 584.468729,131 583.590676,131 C582.712623,131 582,130.268072 582,129.366233 C582,128.464394 582.712623,127.732466 583.590676,127.732466" id="Fill-18" fill="#9BDAF3"></path>
                <path d="M602.590676,34.7324665 C603.468729,34.7324665 604.181352,35.464394 604.181352,36.3662332 C604.181352,37.2680725 603.468729,38 602.590676,38 C601.712623,38 601,37.2680725 601,36.3662332 C601,35.464394 601.712623,34.7324665 602.590676,34.7324665" id="Fill-32" fill="#9BDAF3"></path>
                <polygon id="Fill-4" fill="#756DDD" transform="translate(235.362705, 44.535067) scale(-1, 1) translate(-235.362705, -44.535067) " points="241.72541 42.9013003 236.953381 42.9013003 236.953381 38 233.772029 38 233.772029 42.9013003 229 42.9013003 229 46.1688338 233.772029 46.1688338 233.772029 51.070134 236.953381 51.070134 236.953381 46.1688338 241.72541 46.1688338"></polygon>
                <path d="M288.590676,107.732466 C289.468729,107.732466 290.181352,108.464394 290.181352,109.366233 C290.181352,110.268072 289.468729,111 288.590676,111 C287.712623,111 287,110.268072 287,109.366233 C287,108.464394 287.712623,107.732466 288.590676,107.732466" id="Fill-10" fill="#00A0DC"></path>
                <path d="M198.590676,98 C199.468729,98 200.181352,98.7319275 200.181352,99.6337668 C200.181352,100.535606 199.468729,101.267534 198.590676,101.267534 C197.712623,101.267534 197,100.535606 197,99.6337668 C197,98.7319275 197.712623,98 198.590676,98" id="Fill-12" fill="#9BDAF3"></path>
                <polygon id="Fill-2" fill="#9BDAF3" points="396.72541 8.63376675 391.953381 8.63376675 391.953381 3.7324665 388.772029 3.7324665 388.772029 8.63376675 384 8.63376675 384 11.9013003 388.772029 11.9013003 388.772029 16.8026005 391.953381 16.8026005 391.953381 11.9013003 396.72541 11.9013003"></polygon>
                <path d="M428.590676,0.732466498 C429.468729,0.732466498 430.181352,1.464394 430.181352,2.36623325 C430.181352,3.2680725 429.468729,4 428.590676,4 C427.712623,4 427,3.2680725 427,2.36623325 C427,1.464394 427.712623,0.732466498 428.590676,0.732466498" id="Fill-8" fill="#00A0DC"></path>
                <path d="M430.590676,65.7324665 C431.468729,65.7324665 432.181352,66.464394 432.181352,67.3662332 C432.181352,68.2680725 431.468729,69 430.590676,69 C429.712623,69 429,68.2680725 429,67.3662332 C429,66.464394 429.712623,65.7324665 430.590676,65.7324665" id="Fill-26" fill="#9BDAF3"></path>
                <path d="M487.590676,42.7324665 C488.468729,42.7324665 489.181352,43.464394 489.181352,44.3662332 C489.181352,45.2680725 488.468729,46 487.590676,46 C486.712623,46 486,45.2680725 486,44.3662332 C486,43.464394 486.712623,42.7324665 487.590676,42.7324665" id="Fill-28" fill="#9BDAF3"></path>
                <path d="M805.590676,120.732466 C806.468729,120.732466 807.181352,121.464394 807.181352,122.366233 C807.181352,123.268072 806.468729,124 805.590676,124 C804.712623,124 804,123.268072 804,122.366233 C804,121.464394 804.712623,120.732466 805.590676,120.732466" id="Fill-20" fill="#9BDAF3"></path>
                <path d="M46.5906762,55 C47.4687295,55 48.1813524,55.7319275 48.1813524,56.6337668 C48.1813524,57.535606 47.4687295,58.2675335 46.5906762,58.2675335 C45.7126229,58.2675335 45,57.535606 45,56.6337668 C45,55.7319275 45.7126229,55 46.5906762,55" id="Fill-20" fill="#9BDAF3"></path>
                <path d="M767.590676,104.732466 C768.468729,104.732466 769.181352,105.464394 769.181352,106.366233 C769.181352,107.268072 768.468729,108 767.590676,108 C766.712623,108 766,107.268072 766,106.366233 C766,105.464394 766.712623,104.732466 767.590676,104.732466" id="Fill-22" fill="#00A0DC"></path>
                <path d="M95.5906762,81 C96.4687295,81 97.1813524,81.7319275 97.1813524,82.6337668 C97.1813524,83.535606 96.4687295,84.2675335 95.5906762,84.2675335 C94.7126229,84.2675335 94,83.535606 94,82.6337668 C94,81.7319275 94.7126229,81 95.5906762,81" id="Fill-22" fill="#00A0DC"></path>
                <path d="M684.590676,39 C685.468729,39 686.181352,39.7319275 686.181352,40.6337668 C686.181352,41.535606 685.468729,42.2675335 684.590676,42.2675335 C683.712623,42.2675335 683,41.535606 683,40.6337668 C683,39.7319275 683.712623,39 684.590676,39" id="Fill-20" fill="#9BDAF3" transform="translate(684.590676, 40.633767) scale(-1, 1) translate(-684.590676, -40.633767) "></path>
                <path d="M743.590676,64 C744.468729,64 745.181352,64.7319275 745.181352,65.6337668 C745.181352,66.535606 744.468729,67.2675335 743.590676,67.2675335 C742.712623,67.2675335 742,66.535606 742,65.6337668 C742,64.7319275 742.712623,64 743.590676,64" id="Fill-22" fill="#00A0DC" transform="translate(743.590676, 65.633767) scale(-1, 1) translate(-743.590676, -65.633767) "></path>
            </g>
        </g>
    </g>
</svg>