<?xml version="1.0" encoding="utf-8"?>
<svg version="1.1" id="Layer_1"
xmlns="http://www.w3.org/2000/svg"
xmlns:xlink="http://www.w3.org/1999/xlink"
width="72px" height="72px"
xml:space="preserve">
<g id="PathID_1" transform="matrix(0, 0.462799, -0.462799, 0, 35.7, 35.65)" opacity="0.996094">
<linearGradient
id="LinearGradID_1" gradientUnits="userSpaceOnUse" gradientTransform="matrix(-0.0549406, 0.0549406, -0.0549406, -0.0549406, 0, 0)" spreadMethod ="pad" x1="-819.2" y1="0" x2="819.2" y2="0" >
<stop  offset="0" style="stop-color:#85D581;stop-opacity:1" />
<stop  offset="1" style="stop-color:#499945;stop-opacity:1" />
</linearGradient>
<path style="fill:url(#LinearGradID_1) " d="M63.65 -27L63.65 -26.15Q60.35 -31.8 55.4 -36.75Q40.2 -51.9 18.7 -51.9Q-2.8 -51.9 -18.05 -36.75Q-33.25 -21.5 -33.25 0Q-33.25 21.5 -18.05 36.7Q-2.8 51.95 18.7 51.95Q40.2 51.95 55.4 36.7Q60.25 31.85 63.65 26.35L63.65 27.2Q58.75 37.95 49.7 46.95Q30.25 66.45 2.75 66.45Q-24.75 66.45 -44.25 46.95Q-63.65 27.5 -63.65 0Q-63.65 -27.5 -44.25 -47Q-24.75 -66.4 2.75 -66.4Q30.25 -66.4 49.7 -47Q58.75 -37.9 63.65 -27" />
</g>
<g id="PathID_2" transform="matrix(0, 0.462799, -0.462799, 0, 35.7, 35.65)" opacity="0.996094">
</g>
<g id="PathID_3" transform="matrix(0.46875, 0, 0, 0.46875, 24.7, 49.75)" opacity="0.996094">
<linearGradient
id="LinearGradID_2" gradientUnits="userSpaceOnUse" gradientTransform="matrix(-0.0168749, 0.0168749, -0.0168749, -0.0168749, 22.65, -13.25)" spreadMethod ="pad" x1="-819.2" y1="0" x2="819.2" y2="0" >
<stop  offset="0" style="stop-color:#85D581;stop-opacity:1" />
<stop  offset="1" style="stop-color:#499945;stop-opacity:1" />
</linearGradient>
<path style="fill:url(#LinearGradID_2) " d="M26.25 -12.7L26.25 -3.65Q26.25 -1.5 25.25 -0.4Q24.25 0.65 22.65 0.65Q21.1 0.65 20.15 -0.4Q19.2 -1.5 19.2 -3.65L19.2 -14.5Q19.2 -17.1 19 -18.5Q18.85 -19.95 18.05 -20.85Q17.3 -21.8 15.6 -21.8Q12.25 -21.8 11.2 -19.45Q10.15 -17.15 10.15 -12.85L10.15 -3.65Q10.15 -1.5 9.15 -0.4Q8.2 0.65 6.6 0.65Q5.05 0.65 4.05 -0.4Q3.1 -1.5 3.1 -3.65L3.1 -23.2Q3.1 -25.1 3.95 -26.1Q4.85 -27.15 6.3 -27.15Q7.7 -27.15 8.65 -26.2Q9.6 -25.25 9.6 -23.6L9.6 -22.95Q11.4 -25.05 13.4 -26.05Q15.45 -27.1 17.9 -27.1Q20.5 -27.1 22.35 -26.05Q24.2 -25 25.4 -22.95Q27.1 -25.05 29.05 -26.05Q31.05 -27.1 33.45 -27.1Q36.25 -27.1 38.25 -25.95Q40.3 -24.85 41.3 -22.8Q42.2 -20.95 42.2 -16.95L42.2 -3.65Q42.2 -1.5 41.2 -0.4Q40.2 0.65 38.6 0.65Q37.05 0.65 36.05 -0.4Q35.1 -1.5 35.1 -3.65L35.1 -15.1Q35.1 -17.3 34.9 -18.6Q34.7 -19.95 33.85 -20.85Q33.05 -21.8 31.4 -21.8Q30.05 -21.8 28.85 -20.95Q27.65 -20.15 26.95 -18.8Q26.25 -17.1 26.25 -12.7" />
</g>
<g id="PathID_4" transform="matrix(0.46875, 0, 0, 0.46875, 24.7, 49.75)" opacity="0.996094">
</g>
<g id="PathID_5" transform="matrix(0.0915222, 0, 0, 0.0915222, 35.75, 61.3)" opacity="0.996094">
<linearGradient
id="LinearGradID_3" gradientUnits="userSpaceOnUse" gradientTransform="matrix(-0.0440215, 0.0440215, -0.0440215, -0.0440215, 0, 0)" spreadMethod ="pad" x1="-819.2" y1="0" x2="819.2" y2="0" >
<stop  offset="0" style="stop-color:#85D581;stop-opacity:1" />
<stop  offset="1" style="stop-color:#499945;stop-opacity:1" />
</linearGradient>
<path style="fill:url(#LinearGradID_3) " d="M36 -36.1Q51 -21.1 51 0Q51 21.1 36 36Q21.1 51 0 51Q-21.1 51 -36.1 36Q-51 21.1 -51 0Q-51 -21.1 -36.1 -36.1Q-21.1 -51 0 -51Q21.1 -51 36 -36.1" />
</g>
<g id="PathID_6" transform="matrix(0.0915222, 0, 0, 0.0915222, 35.75, 61.3)" opacity="0.996094">
</g>
</svg>
